<?xml version="1.0" encoding="UTF-8" standalone="no"?>
<!-- Generator: Gravit.io -->
<svg xmlns="http://www.w3.org/2000/svg" xmlns:xlink="http://www.w3.org/1999/xlink" style="isolation:isolate" viewBox="0 0 360 500" width="360pt" height="500pt"><defs><clipPath id="_clipPath_SxDfp5lyTgsi9b0Ob4JiwPCi3fDlXgJX"><rect width="360" height="500"/></clipPath></defs><g clip-path="url(#_clipPath_SxDfp5lyTgsi9b0Ob4JiwPCi3fDlXgJX)"><rect width="360" height="500" style="fill:rgb(242,242,242)"/><g><path d=" M 332.012 51.222 C 332.012 44.636 328.237 39.331 323.551 39.331 L 303.439 39.331 L 303.439 79.577 L 332.077 79.577 L 332.077 51.222 L 332.012 51.222 Z  M 307.279 44.819 L 315.74 44.819 L 315.74 58.265 L 307.279 70.156 L 307.279 44.819 Z  M 328.107 74.089 L 310.078 74.089 L 318.539 62.198 L 328.107 62.198 L 328.107 74.089 Z  M 328.107 56.71 L 319.646 56.71 L 319.646 44.819 L 323.551 44.819 C 326.089 44.819 328.107 47.655 328.107 51.222 L 328.107 56.71 Z  M 336.113 67.32 L 355.704 67.32 L 355.704 72.808 L 336.048 72.808 L 336.048 67.32 L 336.113 67.32 Z  M 312.03 33.477 L 308.125 33.477 L 308.125 5.854 L 312.03 5.854 L 312.03 33.477 L 312.03 33.477 Z  M 327.847 33.569 L 323.941 33.569 L 323.941 5.945 L 327.847 5.945 L 327.847 33.569 Z  M 336.113 56.71 L 355.704 56.71 L 355.704 62.198 L 336.113 62.198 L 336.113 56.71 Z  M 319.646 33.477 L 315.74 33.477 L 315.74 5.945 L 319.646 5.945 L 319.646 33.477 Z  M 355.704 45.185 L 355.704 50.673 L 336.048 50.673 L 336.048 45.185 C 336.048 38.782 332.338 33.569 327.782 33.569 L 327.782 28.081 C 334.486 28.081 339.953 35.764 339.953 45.185 L 343.923 45.185 C 343.923 32.654 336.699 22.501 327.782 22.501 L 327.782 17.013 C 338.847 17.013 347.829 29.636 347.829 45.185 L 351.799 45.185 C 351.799 26.617 341.059 11.433 327.782 11.433 L 327.782 5.945 C 343.207 5.945 355.704 23.599 355.704 45.185 Z  M 51.875 33.477 L 47.97 33.477 L 47.97 5.945 L 51.875 5.945 L 51.875 33.477 Z  M 44.26 33.477 L 40.354 33.477 L 40.354 5.945 L 44.26 5.945 L 44.26 33.477 Z  M 23.952 50.673 L 4.296 50.673 L 4.296 45.185 C 4.296 23.599 16.793 5.945 32.218 5.945 L 32.218 11.433 C 19.006 11.433 8.201 26.526 8.201 45.185 L 12.171 45.185 C 12.171 29.636 21.153 17.013 32.218 17.013 L 32.218 22.501 C 23.301 22.501 16.077 32.654 16.077 45.185 L 20.047 45.185 C 20.047 35.764 25.514 28.081 32.218 28.081 L 32.218 33.569 C 27.662 33.569 23.952 38.782 23.952 45.185 L 23.952 50.673 Z  M 27.988 51.222 L 27.988 79.486 L 56.626 79.486 L 56.626 39.24 L 36.514 39.24 C 31.828 39.331 27.988 44.636 27.988 51.222 L 27.988 51.222 Z  M 44.26 44.819 L 52.721 44.819 L 52.721 70.156 L 44.26 58.265 L 44.26 44.819 Z  M 49.922 74.089 L 31.893 74.089 L 31.893 62.198 L 41.461 62.198 L 49.922 74.089 Z  M 40.354 56.71 L 31.893 56.71 L 31.893 51.222 C 31.893 47.655 33.911 44.819 36.449 44.819 L 40.354 44.819 L 40.354 56.71 Z  M 23.887 62.198 L 4.296 62.198 L 4.296 56.71 L 23.887 56.71 L 23.887 62.198 Z  M 8.136 72.808 L 4.231 72.808 L 4.231 67.32 L 23.822 67.32 L 23.822 72.808 L 8.136 72.808 Z  M 36.059 33.569 L 32.153 33.569 L 32.153 5.945 L 36.059 5.945 L 36.059 33.569 Z  M 23.887 438.497 L 4.296 438.497 L 4.296 433.009 L 23.952 433.009 L 23.952 438.497 L 23.887 438.497 Z  M 32.153 472.34 L 32.153 477.828 C 25.449 477.828 19.982 470.145 19.982 460.723 L 16.012 460.723 C 16.012 473.255 23.236 483.407 32.153 483.407 L 32.153 488.896 C 21.088 488.896 12.106 476.273 12.106 460.723 L 8.136 460.723 C 8.136 479.291 18.875 494.475 32.153 494.475 L 32.153 499.963 C 16.793 499.963 4.231 482.401 4.231 460.723 L 4.231 455.235 L 23.887 455.235 L 23.887 460.723 C 23.887 467.126 27.597 472.34 32.153 472.34 Z  M 4.296 443.71 L 23.887 443.71 L 23.887 449.198 L 4.296 449.198 L 4.296 443.71 L 4.296 443.71 Z  M 32.153 472.34 L 36.059 472.34 L 36.059 499.963 L 32.153 499.963 L 32.153 472.34 Z  M 27.988 454.687 C 27.988 461.272 31.763 466.577 36.449 466.577 L 56.561 466.577 L 56.561 426.332 L 27.923 426.332 L 27.923 454.687 L 27.988 454.687 Z  M 52.721 461.089 L 44.26 461.089 L 44.26 447.644 L 52.721 435.753 L 52.721 461.089 Z  M 31.893 431.82 L 49.922 431.82 L 41.461 443.71 L 31.893 443.71 L 31.893 431.82 Z  M 31.893 449.198 L 40.354 449.198 L 40.354 461.089 L 36.449 461.089 C 33.911 461.089 31.893 458.254 31.893 454.687 L 31.893 449.198 Z  M 40.354 472.34 L 44.26 472.34 L 44.26 499.872 L 40.354 499.872 L 40.354 472.34 Z  M 47.97 472.34 L 51.875 472.34 L 51.875 499.963 L 47.97 499.963 L 47.97 472.34 Z  M 315.74 472.34 L 319.646 472.34 L 319.646 499.872 L 315.74 499.872 L 315.74 472.34 L 315.74 472.34 Z  M 355.704 433.009 L 355.704 438.497 L 336.113 438.497 L 336.113 433.009 L 355.704 433.009 Z  M 323.941 472.34 L 327.847 472.34 L 327.847 499.963 L 323.941 499.963 L 323.941 472.34 Z  M 336.113 443.71 L 355.704 443.71 L 355.704 449.198 L 336.113 449.198 L 336.113 443.71 L 336.113 443.71 Z  M 336.048 455.235 L 355.704 455.235 L 355.704 460.723 C 355.704 482.31 343.207 499.963 327.782 499.963 L 327.782 494.475 C 340.994 494.475 351.799 479.383 351.799 460.723 L 347.829 460.723 C 347.829 476.273 338.847 488.896 327.782 488.896 L 327.782 483.407 C 336.699 483.407 343.923 473.255 343.923 460.723 L 339.953 460.723 C 339.953 470.145 334.486 477.828 327.782 477.828 L 327.782 472.34 C 332.338 472.34 336.048 467.126 336.048 460.723 L 336.048 455.235 Z  M 308.125 472.34 L 312.03 472.34 L 312.03 499.872 L 308.125 499.872 L 308.125 472.34 Z  M 332.012 454.687 L 332.012 426.423 L 303.374 426.423 L 303.374 466.669 L 323.486 466.669 C 328.172 466.577 332.012 461.181 332.012 454.687 Z  M 315.74 461.089 L 307.279 461.089 L 307.279 435.753 L 315.74 447.644 L 315.74 461.089 Z  M 328.107 454.687 C 328.107 458.254 326.089 461.089 323.551 461.089 L 319.646 461.089 L 319.646 449.198 L 328.107 449.198 L 328.107 454.687 Z  M 328.107 443.71 L 318.539 443.71 L 310.078 431.82 L 328.107 431.82 L 328.107 443.71 Z  M 346.917 242.664 L 343.923 246.872 L 343.923 210.467 C 345.29 209.095 346.657 207.632 347.829 205.894 L 347.829 241.292 L 346.917 242.664 Z  M 351.799 198.943 C 353.621 194.826 354.988 190.162 355.639 185.222 L 355.704 185.222 L 355.704 247.238 L 351.799 241.749 L 351.799 198.943 Z  M 343.988 259.769 L 346.982 263.976 L 347.894 265.257 L 347.894 300.655 C 346.722 299.008 345.355 297.453 343.988 296.081 L 343.988 259.769 Z  M 351.799 264.799 L 352.45 263.885 L 355.704 259.311 L 355.704 321.326 L 355.639 321.326 C 354.988 316.387 353.686 311.722 351.799 307.606 L 351.799 264.799 Z  M 351.799 183.942 M 12.106 264.525 L 13.018 263.244 L 16.012 259.037 L 16.012 295.441 C 14.645 296.813 13.278 298.277 12.106 300.014 L 12.106 264.525 Z  M 4.361 320.686 L 4.296 320.686 L 4.296 258.671 L 7.55 263.244 L 8.201 264.159 L 8.201 306.966 C 6.314 311.082 5.012 315.655 4.361 320.686 Z  M 13.083 241.932 L 12.171 240.652 L 12.171 205.254 C 13.343 206.9 14.71 208.455 16.077 209.827 L 16.077 246.231 L 13.083 241.932 L 13.083 241.932 Z  M 7.55 241.932 L 4.296 246.506 L 4.296 184.491 L 4.361 184.491 C 5.012 189.43 6.314 194.095 8.201 198.211 L 8.201 241.018 L 7.55 241.932 Z  M 172.678 18.385 L 175.672 22.593 L 149.767 22.593 C 148.79 20.672 147.749 18.751 146.512 17.104 L 171.701 17.104 L 172.678 18.385 Z  M 131.803 5.945 L 175.932 5.945 L 172.678 10.519 L 172.027 11.433 L 141.566 11.433 C 138.637 8.872 135.317 6.952 131.803 6.037 L 131.803 5.945 Z  M 184.589 5.945 L 228.718 5.945 L 228.718 6.037 C 225.203 6.952 221.884 8.781 218.955 11.433 L 188.494 11.433 L 187.843 10.519 L 184.589 5.945 Z  M 210.754 22.501 L 184.849 22.501 L 187.843 18.294 L 188.754 17.013 L 213.943 17.013 C 212.772 18.751 211.73 20.58 210.754 22.501 Z  M 130.891 11.433 M 218.434 494.384 C 221.363 496.945 224.683 498.866 228.197 499.78 L 228.197 499.872 L 184.068 499.872 L 187.322 495.298 L 187.973 494.384 L 218.434 494.384 Z  M 184.393 483.407 L 210.298 483.407 C 211.275 485.328 212.316 487.249 213.553 488.896 L 188.364 488.896 L 187.453 487.615 L 184.393 483.407 L 184.393 483.407 Z  M 175.151 483.407 L 171.246 488.896 L 146.057 488.896 C 147.228 487.249 148.335 485.328 149.311 483.407 L 175.151 483.407 Z  M 172.157 495.298 L 175.411 499.872 L 131.282 499.872 L 131.282 499.78 C 134.797 498.866 138.116 497.036 141.045 494.384 L 171.506 494.384 L 172.157 495.298 Z  M 229.044 494.384" fill="rgb(100,199,204)"/><path d=" M 351.864 172.691 L 351.799 172.691 L 351.799 172.234 L 351.799 172.325 C 351.864 172.325 351.864 172.508 351.864 172.691 Z  M 336.113 72.808 L 336.113 140.403 C 336.634 140.678 337.219 140.86 337.74 141.135 C 337.87 141.226 337.935 141.226 338.065 141.318 C 338.521 141.592 338.977 141.775 339.367 142.05 C 339.562 142.141 339.758 142.324 339.953 142.415 L 339.953 72.717 L 336.113 72.717 L 336.113 72.808 L 336.113 72.808 Z  M 351.799 72.808 L 351.799 157.233 C 352.45 158.788 353.101 160.343 353.621 161.99 C 353.686 162.172 353.752 162.447 353.817 162.63 C 353.947 163.087 354.077 163.544 354.207 163.91 C 354.402 164.551 354.533 165.191 354.728 165.831 L 354.923 166.654 C 355.053 167.203 355.118 167.752 355.249 168.301 C 355.314 168.575 355.314 168.85 355.379 169.033 C 355.509 169.856 355.639 170.679 355.704 171.411 L 355.704 72.808 L 351.799 72.808 L 351.799 72.808 Z  M 343.988 139.763 C 345.355 140.769 346.722 141.775 347.894 143.056 L 347.894 72.9 L 343.988 72.9 L 343.988 139.763 L 343.988 139.763 Z  M 351.864 333.858 L 351.799 333.858 L 351.799 334.315 C 351.799 334.223 351.799 334.132 351.864 334.04 L 351.864 333.858 Z  M 343.988 433.009 L 347.894 433.009 L 347.894 363.585 C 346.722 364.774 345.355 365.871 343.988 366.877 L 343.988 433.009 L 343.988 433.009 Z  M 355.379 337.242 C 355.314 337.516 355.314 337.791 355.249 338.065 C 355.118 338.614 355.053 339.163 354.923 339.711 L 354.728 340.535 C 354.598 341.175 354.402 341.815 354.207 342.456 L 353.817 343.828 C 353.752 344.01 353.686 344.285 353.621 344.468 C 353.101 346.114 352.45 347.761 351.799 349.224 L 351.799 433.009 L 355.704 433.009 L 355.704 334.864 C 355.639 335.687 355.509 336.51 355.379 337.242 L 355.379 337.242 Z  M 339.432 364.408 C 338.977 364.682 338.586 364.957 338.131 365.14 C 338 365.231 337.935 365.231 337.805 365.322 C 337.284 365.597 336.699 365.871 336.178 366.146 L 336.178 433.1 L 340.083 433.1 L 340.083 363.95 C 339.823 364.133 339.628 364.225 339.432 364.408 Z  M 12.106 433.009 L 16.012 433.009 L 16.012 366.146 C 14.645 365.14 13.278 364.133 12.106 362.853 L 12.106 433.009 L 12.106 433.009 Z  M 6.118 343.096 L 5.728 341.724 C 5.532 341.084 5.402 340.443 5.207 339.803 L 5.012 338.98 C 4.882 338.431 4.816 337.882 4.686 337.333 C 4.621 337.059 4.621 336.785 4.556 336.51 C 4.426 335.687 4.296 334.864 4.231 334.132 L 4.231 433.009 L 8.136 433.009 L 8.136 348.584 C 7.485 347.029 6.834 345.474 6.314 343.828 C 6.248 343.553 6.183 343.37 6.118 343.096 Z  M 21.869 364.408 C 21.414 364.133 20.958 363.95 20.568 363.676 C 20.372 363.585 20.177 363.402 19.982 363.31 L 19.982 433.009 L 23.887 433.009 L 23.887 365.414 C 23.301 365.14 22.781 364.957 22.26 364.682 L 21.869 364.408 Z  M 8.136 171.96 L 8.136 171.502 L 8.136 171.96 Z  M 4.231 72.808 L 4.231 170.953 C 4.296 170.13 4.426 169.307 4.556 168.575 C 4.621 168.301 4.621 168.026 4.686 167.752 C 4.816 167.203 4.882 166.654 5.012 166.106 L 5.207 165.282 C 5.337 164.642 5.532 164.002 5.728 163.362 C 5.858 162.904 5.988 162.447 6.118 162.081 C 6.183 161.807 6.248 161.624 6.314 161.441 C 6.834 159.794 7.485 158.148 8.136 156.684 L 8.136 72.991 L 4.231 72.991 L 4.231 72.808 L 4.231 72.808 Z  M 19.982 72.808 L 19.982 141.867 C 20.177 141.775 20.372 141.592 20.568 141.501 C 21.023 141.226 21.414 140.952 21.869 140.769 C 22 140.678 22.065 140.678 22.195 140.586 C 22.716 140.312 23.301 140.037 23.822 139.763 L 23.822 72.808 L 19.982 72.808 L 19.982 72.808 Z  M 12.106 142.324 C 13.278 141.135 14.645 140.037 16.012 139.031 L 16.012 72.808 L 12.106 72.808 L 12.106 142.324 Z  M 122.56 11.433 L 122.886 11.433 L 122.886 11.342 C 122.755 11.433 122.625 11.433 122.56 11.433 Z  M 101.732 17.013 L 51.81 17.013 L 51.81 22.501 L 99.389 22.501 C 100.17 20.58 100.886 18.659 101.732 17.013 Z  M 111.951 11.433 C 113.057 10.519 114.164 9.604 115.335 8.872 C 115.531 8.781 115.661 8.689 115.856 8.598 C 116.182 8.415 116.507 8.232 116.767 8.049 C 117.223 7.775 117.679 7.592 118.134 7.317 L 118.72 7.043 C 119.11 6.86 119.501 6.769 119.892 6.586 C 120.087 6.494 120.282 6.494 120.412 6.403 C 120.998 6.22 121.584 6.037 122.17 5.945 L 51.875 5.945 L 51.875 11.433 L 111.951 11.433 L 111.951 11.433 Z  M 99.975 33.569 C 100.17 32.745 100.3 32.014 100.495 31.282 C 100.56 31.099 100.56 31.008 100.626 30.825 C 100.821 30.184 100.951 29.544 101.146 28.995 C 101.211 28.721 101.342 28.446 101.407 28.172 L 51.81 28.172 L 51.81 33.66 L 99.975 33.66 L 99.975 33.569 Z  M 237.961 11.433 C 237.83 11.433 237.7 11.342 237.635 11.342 L 237.635 11.433 L 237.961 11.433 Z  M 259.049 28.081 C 259.114 28.355 259.244 28.629 259.309 28.904 C 259.505 29.544 259.7 30.093 259.83 30.733 C 259.895 30.916 259.895 31.008 259.96 31.191 C 260.155 31.922 260.351 32.745 260.481 33.477 L 308.06 33.477 L 308.06 27.989 L 259.049 28.081 Z  M 261.067 22.501 L 308.125 22.501 L 308.125 17.013 L 258.724 17.013 C 259.57 18.659 260.351 20.58 261.067 22.501 L 261.067 22.501 Z  M 238.286 5.945 C 238.872 6.037 239.458 6.22 240.043 6.403 C 240.239 6.494 240.434 6.494 240.564 6.586 C 240.955 6.769 241.345 6.86 241.736 7.043 L 242.321 7.317 C 242.777 7.5 243.233 7.775 243.688 8.049 C 244.014 8.232 244.339 8.415 244.6 8.598 C 244.795 8.689 244.925 8.781 245.12 8.872 C 246.292 9.604 247.463 10.519 248.505 11.433 L 308.06 11.433 L 308.06 5.945 L 238.286 5.945 Z  M 237.114 494.475 C 237.245 494.475 237.375 494.384 237.44 494.384 L 237.114 494.475 Z  M 258.268 488.896 L 308.19 488.896 L 308.19 483.407 L 260.611 483.407 C 259.895 485.328 259.114 487.158 258.268 488.896 Z  M 259.505 474.627 C 259.44 474.809 259.44 474.901 259.374 475.084 C 259.179 475.724 258.984 476.364 258.854 476.913 C 258.789 477.188 258.658 477.462 258.593 477.736 L 308.19 477.736 L 308.19 472.248 L 260.09 472.248 C 259.895 473.163 259.7 473.895 259.505 474.627 Z  M 248.049 494.384 C 246.943 495.298 245.836 496.213 244.665 496.945 C 244.534 497.036 244.339 497.128 244.144 497.219 C 243.818 497.402 243.493 497.585 243.233 497.768 C 242.777 498.042 242.321 498.225 241.866 498.5 L 241.28 498.774 C 240.89 498.957 240.499 499.048 240.108 499.231 C 239.913 499.323 239.718 499.323 239.588 499.414 C 239.002 499.597 238.416 499.78 237.83 499.872 L 308.19 499.872 L 308.19 494.384 L 248.049 494.384 L 248.049 494.384 Z  M 122.365 494.475 L 122.039 494.384 C 122.17 494.475 122.3 494.475 122.365 494.475 Z  M 98.933 483.407 L 51.81 483.407 L 51.81 488.896 L 101.211 488.896 C 100.43 487.158 99.649 485.328 98.933 483.407 Z  M 100.951 477.828 C 100.886 477.554 100.756 477.279 100.691 477.005 C 100.495 476.364 100.3 475.816 100.17 475.175 C 100.105 474.992 100.105 474.901 100.04 474.718 C 99.845 473.986 99.649 473.163 99.454 472.431 L 51.81 472.431 L 51.81 477.919 L 100.951 477.828 Z  M 119.436 499.231 C 119.045 499.048 118.655 498.957 118.264 498.774 L 117.679 498.5 C 117.223 498.317 116.767 498.042 116.312 497.768 C 115.986 497.585 115.661 497.402 115.4 497.219 C 115.205 497.128 115.075 497.036 114.88 496.945 C 113.708 496.213 112.537 495.298 111.495 494.384 L 51.94 494.384 L 51.94 499.872 L 121.779 499.872 C 121.193 499.78 120.607 499.597 120.022 499.414 C 119.826 499.323 119.631 499.323 119.436 499.231 L 119.436 499.231 Z " fill="rgb(126,160,77)"/><path d=" M 336.113 203.973 L 336.113 197.845 C 340.994 193.912 344.249 186.594 344.249 178.088 C 344.249 169.673 340.929 162.264 336.113 158.331 L 336.113 152.202 C 343.207 156.593 348.154 166.471 348.154 178.088 C 348.154 189.704 343.207 199.583 336.113 203.973 L 336.113 203.973 Z  M 340.278 178.088 C 340.278 172.966 338.651 168.392 336.113 165.191 L 336.113 190.893 C 338.651 187.783 340.278 183.21 340.278 178.088 Z  M 347.894 205.894 C 349.391 203.79 350.692 201.504 351.864 198.943 C 353.686 194.826 355.053 190.162 355.704 185.222 C 355.704 184.948 355.769 184.765 355.834 184.491 L 355.834 171.685 C 355.769 170.862 355.639 170.039 355.509 169.307 C 355.444 169.033 355.444 168.758 355.379 168.575 C 355.249 168.026 355.184 167.478 355.053 166.929 L 354.858 166.106 C 354.728 165.465 354.533 164.825 354.337 164.185 C 354.207 163.727 354.077 163.27 353.947 162.904 C 353.882 162.721 353.817 162.447 353.752 162.264 C 353.231 160.617 352.58 158.971 351.929 157.508 C 349.065 151.196 344.965 145.983 340.148 142.781 C 339.953 142.69 339.758 142.507 339.562 142.415 C 339.107 142.141 338.716 141.867 338.261 141.684 C 338.131 141.592 338.065 141.592 337.935 141.501 C 337.415 141.226 336.829 140.952 336.308 140.769 L 336.308 146.531 C 344.379 150.556 350.497 160.343 351.994 172.417 L 351.994 172.508 C 352.255 174.429 352.385 176.35 352.385 178.362 C 352.385 193.089 345.681 205.62 336.308 210.193 L 336.308 215.956 C 339.172 214.766 341.775 212.937 344.184 210.65 C 345.355 209.095 346.657 207.54 347.894 205.894 L 347.894 205.894 Z  M 348.219 328.461 C 348.219 316.936 343.272 306.966 336.178 302.576 L 336.178 308.704 C 341.059 312.637 344.314 319.954 344.314 328.461 C 344.314 336.876 340.994 344.285 336.178 348.218 L 336.178 354.346 C 343.207 349.956 348.219 339.986 348.219 328.461 Z  M 340.278 328.461 C 340.278 323.339 338.651 318.765 336.113 315.564 L 336.113 341.266 C 338.651 338.157 340.278 333.583 340.278 328.461 Z  M 351.799 307.606 C 350.692 305.045 349.326 302.758 347.829 300.655 C 346.657 299.008 345.29 297.453 343.923 296.081 C 341.515 293.795 338.912 291.965 336.048 290.776 L 336.048 296.539 C 345.42 301.112 352.124 313.735 352.124 328.369 C 352.124 330.199 351.994 332.028 351.799 333.766 L 351.799 334.04 C 350.302 346.206 344.184 356.176 336.048 360.2 L 336.048 365.963 C 336.634 365.688 337.154 365.505 337.675 365.14 C 337.805 365.048 337.87 365.048 338 364.957 C 338.456 364.682 338.912 364.408 339.302 364.225 C 339.497 364.133 339.693 363.95 339.888 363.859 C 344.769 360.658 348.87 355.535 351.669 349.133 C 352.32 347.578 352.971 346.023 353.491 344.376 C 353.556 344.193 353.621 343.919 353.686 343.736 L 354.077 342.364 C 354.272 341.724 354.402 341.084 354.598 340.443 L 354.793 339.62 C 354.923 339.071 354.988 338.522 355.118 337.974 C 355.184 337.699 355.184 337.425 355.249 337.15 C 355.379 336.327 355.509 335.504 355.574 334.772 L 355.574 321.967 C 355.574 321.692 355.509 321.509 355.444 321.235 C 354.988 316.387 353.686 311.722 351.799 307.606 L 351.799 307.606 Z  M 351.799 322.607 M 360 253.274 L 355.769 259.311 L 352.515 263.885 L 351.864 264.799 L 349.716 267.818 L 347.894 265.257 L 346.982 263.976 L 343.988 259.769 L 339.432 253.366 L 343.988 246.963 L 346.982 242.756 L 347.894 241.475 L 349.716 238.914 L 351.864 241.932 L 355.769 247.42 L 360 253.274 Z  M 354.533 253.274 L 349.716 246.506 L 344.9 253.274 L 349.716 260.043 L 354.533 253.274 Z  M 329.799 95.584 C 329.799 101.621 326.285 106.56 321.989 106.56 C 317.693 106.56 314.178 101.621 314.178 95.584 C 314.178 89.547 317.693 84.608 321.989 84.608 C 326.285 84.608 329.799 89.547 329.799 95.584 Z  M 325.894 95.584 C 325.894 92.565 324.137 90.096 321.989 90.096 C 319.841 90.096 318.084 92.565 318.084 95.584 C 318.084 98.602 319.841 101.072 321.989 101.072 C 324.137 101.072 325.894 98.602 325.894 95.584 Z  M 329.799 410.233 C 329.799 416.27 326.285 421.209 321.989 421.209 C 317.693 421.209 314.178 416.27 314.178 410.233 C 314.178 404.196 317.693 399.257 321.989 399.257 C 326.285 399.257 329.799 404.196 329.799 410.233 Z  M 325.894 410.233 C 325.894 407.215 324.137 404.745 321.989 404.745 C 319.841 404.745 318.084 407.215 318.084 410.233 C 318.084 413.252 319.841 415.721 321.989 415.721 C 324.137 415.721 325.894 413.252 325.894 410.233 Z  M 11.781 327.729 C 11.781 339.254 16.728 349.224 23.822 353.615 L 23.822 347.486 C 18.941 343.553 15.686 336.236 15.686 327.729 C 15.686 319.314 19.006 311.905 23.822 307.972 L 23.822 301.844 C 16.793 306.234 11.781 316.204 11.781 327.729 Z  M 19.722 327.729 C 19.722 332.851 21.349 337.425 23.887 340.626 L 23.887 314.924 C 21.349 318.034 19.722 322.607 19.722 327.729 Z  M 12.106 300.014 C 10.609 302.118 9.308 304.405 8.136 306.966 C 6.314 311.082 4.947 315.747 4.296 320.686 C 4.296 320.961 4.231 321.144 4.166 321.418 L 4.166 334.223 C 4.231 335.047 4.361 335.87 4.491 336.602 C 4.556 336.876 4.556 337.15 4.621 337.425 C 4.751 337.974 4.816 338.522 4.947 339.071 L 5.142 339.894 C 5.272 340.535 5.467 341.175 5.663 341.815 L 6.053 343.187 C 6.118 343.37 6.183 343.645 6.248 343.828 C 6.769 345.474 7.42 347.12 8.071 348.584 C 10.935 354.895 15.035 360.109 19.852 363.31 C 20.047 363.402 20.242 363.585 20.438 363.676 C 20.893 363.95 21.284 364.225 21.739 364.408 C 21.869 364.499 21.935 364.499 22.065 364.591 C 22.585 364.865 23.171 365.14 23.692 365.322 L 23.692 359.56 C 15.621 355.535 9.503 345.748 8.006 333.675 L 8.006 333.217 L 7.941 333.217 C 7.745 331.479 7.615 329.65 7.615 327.821 C 7.615 325.808 7.745 323.888 8.006 321.967 L 8.006 321.875 C 9.568 309.802 15.621 299.923 23.692 295.99 L 23.692 290.227 C 20.828 291.416 18.225 293.246 15.816 295.533 C 14.645 296.813 13.343 298.277 12.106 300.014 Z  M 21.869 140.678 C 21.414 140.952 20.958 141.226 20.568 141.409 C 20.372 141.501 20.177 141.684 19.982 141.775 C 15.1 144.977 11 150.099 8.201 156.501 C 7.55 158.056 6.899 159.611 6.379 161.258 C 6.314 161.441 6.248 161.715 6.183 161.898 C 6.053 162.355 5.923 162.813 5.793 163.179 C 5.598 163.819 5.467 164.459 5.272 165.099 L 5.077 165.923 C 4.947 166.471 4.882 167.02 4.751 167.569 C 4.686 167.843 4.686 168.118 4.621 168.392 C 4.491 169.215 4.361 170.039 4.296 170.77 L 4.296 183.576 C 4.296 183.85 4.361 184.033 4.426 184.308 C 5.077 189.247 6.379 193.912 8.266 198.028 C 9.373 200.589 10.739 202.876 12.236 204.979 C 13.408 206.626 14.775 208.181 16.142 209.553 C 18.55 211.839 21.153 213.669 24.017 214.858 L 24.017 209.095 C 15.946 205.071 9.828 195.284 8.331 183.21 L 8.331 183.119 C 8.071 181.198 7.941 179.277 7.941 177.265 C 7.941 175.435 8.071 173.606 8.266 171.868 C 8.266 171.685 8.331 171.502 8.331 171.411 C 9.893 159.337 15.946 149.458 24.017 145.525 L 24.017 139.763 C 23.432 140.037 22.911 140.22 22.39 140.586 C 22.13 140.586 22 140.678 21.869 140.678 L 21.869 140.678 Z  M 11.781 177.356 C 11.781 188.881 16.728 198.851 23.822 203.242 L 23.822 197.113 C 18.941 193.18 15.686 185.863 15.686 177.356 C 15.686 168.941 19.006 161.532 23.822 157.599 L 23.822 151.471 C 16.793 155.861 11.781 165.831 11.781 177.356 L 11.781 177.356 Z  M 19.722 177.356 C 19.722 182.478 21.349 187.052 23.887 190.253 L 23.887 164.551 C 21.349 167.661 19.722 172.234 19.722 177.356 Z  M 0 252.634 L 4.296 246.506 L 7.55 241.932 L 8.201 241.018 L 10.349 237.999 L 12.171 240.56 L 13.083 241.841 L 16.077 246.048 L 20.633 252.451 L 16.077 258.854 L 13.083 263.061 L 12.171 264.342 L 10.349 266.903 L 8.201 263.885 L 7.55 262.97 L 4.296 258.397 L 0 252.634 Z  M 5.467 252.543 L 10.284 259.311 L 15.1 252.543 L 10.284 245.774 L 5.467 252.543 Z  M 45.822 410.233 C 45.822 416.27 42.307 421.209 38.011 421.209 C 33.715 421.209 30.201 416.27 30.201 410.233 C 30.201 404.196 33.715 399.257 38.011 399.257 C 42.307 399.257 45.822 404.196 45.822 410.233 Z  M 41.916 410.233 C 41.916 407.215 40.159 404.745 38.011 404.745 C 35.863 404.745 34.106 407.215 34.106 410.233 C 34.106 413.252 35.863 415.721 38.011 415.721 C 40.159 415.721 41.916 413.252 41.916 410.233 Z  M 45.822 95.584 C 45.822 101.621 42.307 106.56 38.011 106.56 C 33.715 106.56 30.201 101.621 30.201 95.584 C 30.201 89.547 33.715 84.608 38.011 84.608 C 42.307 84.608 45.822 89.547 45.822 95.584 Z  M 41.916 95.584 C 41.916 92.565 40.159 90.096 38.011 90.096 C 35.863 90.096 34.106 92.565 34.106 95.584 C 34.106 98.602 35.863 101.072 38.011 101.072 C 40.159 101.072 41.916 98.602 41.916 95.584 Z  M 126.726 27.715 C 123.081 27.715 119.826 30.001 117.548 33.569 L 135.838 33.569 C 133.69 30.001 130.371 27.715 126.726 27.715 Z  M 140.785 33.569 L 145.146 33.569 C 142.021 23.599 134.992 16.647 126.726 16.647 C 118.525 16.647 111.43 23.599 108.306 33.569 L 112.667 33.569 C 115.466 26.709 120.673 22.135 126.726 22.135 C 132.779 22.044 137.986 26.709 140.785 33.569 L 140.785 33.569 Z  M 146.512 17.013 C 145.015 14.909 143.388 13.08 141.566 11.433 C 138.637 8.872 135.317 6.952 131.803 6.037 C 131.607 6.037 131.477 5.945 131.282 5.854 L 122.17 5.854 C 121.584 5.945 120.998 6.128 120.412 6.311 C 120.217 6.403 120.022 6.403 119.892 6.494 C 119.501 6.677 119.11 6.769 118.72 6.952 L 118.134 7.226 C 117.679 7.409 117.223 7.683 116.767 7.958 C 116.442 8.141 116.116 8.324 115.856 8.507 C 115.661 8.598 115.531 8.689 115.335 8.781 C 114.164 9.513 112.992 10.427 111.951 11.342 C 107.395 15.367 103.75 21.129 101.472 27.898 C 101.407 28.172 101.276 28.446 101.211 28.721 C 101.016 29.361 100.821 29.91 100.691 30.55 C 100.626 30.733 100.626 30.825 100.56 31.008 C 100.365 31.739 100.17 32.563 100.04 33.294 L 104.14 33.294 C 107.004 21.952 113.969 13.354 122.56 11.251 C 122.69 11.251 122.82 11.159 122.886 11.159 C 124.122 10.885 125.424 10.702 126.726 10.702 C 137.205 10.702 146.122 20.123 149.376 33.294 L 153.477 33.294 C 152.631 29.27 151.329 25.611 149.702 22.227 C 148.79 20.58 147.749 18.751 146.512 17.013 Z  M 233.73 27.715 C 230.085 27.715 226.831 30.001 224.553 33.569 L 242.842 33.569 C 240.694 30.001 237.375 27.715 233.73 27.715 Z  M 215.375 33.569 L 219.736 33.569 C 222.535 26.709 227.742 22.135 233.795 22.135 C 239.783 22.135 245.055 26.8 247.854 33.569 L 252.215 33.569 C 249.091 23.599 242.061 16.647 233.795 16.647 C 225.529 16.647 218.434 23.599 215.375 33.569 Z  M 259.96 31.191 C 259.895 31.008 259.895 30.916 259.83 30.733 C 259.635 30.093 259.44 29.453 259.309 28.904 C 259.244 28.629 259.114 28.355 259.049 28.081 C 256.771 21.221 253.126 15.458 248.57 11.525 C 247.463 10.61 246.357 9.696 245.185 8.964 C 244.99 8.872 244.86 8.781 244.665 8.689 C 244.339 8.507 244.014 8.324 243.753 8.141 C 243.298 7.866 242.842 7.683 242.387 7.409 L 241.801 7.134 C 241.41 6.952 241.02 6.86 240.629 6.677 C 240.434 6.586 240.239 6.586 240.108 6.494 C 239.523 6.311 238.937 6.128 238.416 6.037 L 229.304 6.037 C 229.109 6.037 228.978 6.128 228.783 6.22 C 225.268 7.134 221.949 8.964 219.02 11.616 C 217.198 13.171 215.57 15.092 214.073 17.196 C 212.902 18.842 211.795 20.763 210.819 22.684 C 209.192 26.068 207.89 29.727 207.044 33.752 L 211.144 33.752 C 214.399 20.58 223.381 11.159 233.795 11.159 C 235.097 11.159 236.398 11.342 237.635 11.616 C 237.765 11.616 237.895 11.708 237.961 11.708 C 246.552 13.903 253.582 22.41 256.38 33.752 L 260.481 33.752 C 260.351 32.745 260.155 32.014 259.96 31.191 L 259.96 31.191 Z  M 229.499 11.433 M 188.494 11.525 L 190.642 14.543 L 188.819 17.104 L 187.908 18.385 L 184.914 22.593 L 180.358 28.995 L 175.802 22.593 L 172.808 18.385 L 171.897 17.104 L 170.074 14.543 L 172.222 11.525 L 172.873 10.61 L 176.127 6.037 L 180.423 0 L 184.719 6.037 L 187.973 10.61 L 188.494 11.525 L 188.494 11.525 Z  M 185.044 14.452 L 180.228 7.683 L 175.411 14.452 L 180.228 21.221 L 185.044 14.452 Z  M 75.827 53.417 C 75.827 59.454 72.312 64.393 68.017 64.393 C 63.721 64.393 60.206 59.454 60.206 53.417 C 60.206 47.38 63.721 42.441 68.017 42.441 C 72.378 42.441 75.827 47.38 75.827 53.417 Z  M 71.922 53.417 C 71.922 50.399 70.165 47.929 68.017 47.929 C 65.869 47.929 64.111 50.399 64.111 53.417 C 64.111 56.436 65.869 58.905 68.017 58.905 C 70.23 58.905 71.922 56.436 71.922 53.417 Z  M 299.794 53.417 C 299.794 59.454 296.279 64.393 291.983 64.393 C 287.688 64.393 284.173 59.454 284.173 53.417 C 284.173 47.38 287.688 42.441 291.983 42.441 C 296.279 42.441 299.794 47.38 299.794 53.417 Z  M 295.889 53.417 C 295.889 50.399 294.131 47.929 291.983 47.929 C 289.835 47.929 288.078 50.399 288.078 53.417 C 288.078 56.436 289.835 58.905 291.983 58.905 C 294.131 58.905 295.889 56.436 295.889 53.417 Z  M 233.274 489.353 C 241.475 489.353 248.57 482.401 251.694 472.431 L 247.268 472.431 C 244.469 479.291 239.262 483.865 233.209 483.865 C 227.221 483.865 221.949 479.2 219.15 472.431 L 214.789 472.431 C 217.979 482.31 225.008 489.353 233.274 489.353 L 233.274 489.353 Z  M 233.274 478.194 C 236.919 478.194 240.174 475.907 242.452 472.34 L 224.162 472.34 C 226.31 475.907 229.629 478.194 233.274 478.194 Z  M 233.274 494.932 C 222.795 494.932 213.878 485.511 210.624 472.34 L 206.523 472.34 C 207.369 476.364 208.671 480.023 210.298 483.407 C 211.275 485.328 212.316 487.249 213.553 488.896 C 215.05 490.999 216.677 492.829 218.499 494.475 C 221.428 497.036 224.748 498.957 228.263 499.872 C 228.458 499.872 228.588 499.963 228.783 500.055 L 237.895 500.055 C 238.481 499.963 239.067 499.78 239.653 499.597 C 239.848 499.506 240.043 499.506 240.174 499.414 C 240.564 499.231 240.955 499.14 241.345 498.957 L 241.931 498.683 C 242.387 498.5 242.842 498.225 243.298 497.951 C 243.623 497.768 243.949 497.585 244.209 497.402 C 244.404 497.311 244.534 497.219 244.73 497.128 C 245.901 496.396 247.073 495.481 248.114 494.567 C 252.605 490.542 256.315 484.779 258.593 478.011 C 258.658 477.736 258.789 477.462 258.854 477.188 C 259.049 476.547 259.244 475.999 259.374 475.358 C 259.44 475.175 259.44 475.084 259.505 474.901 C 259.7 474.169 259.895 473.346 260.09 472.614 L 255.99 472.614 C 252.67 485.511 243.753 494.932 233.274 494.932 L 233.274 494.932 Z  M 126.27 494.932 C 115.791 494.932 106.874 485.511 103.62 472.34 L 99.519 472.34 C 99.714 473.163 99.845 473.895 100.105 474.627 C 100.17 474.809 100.17 474.901 100.235 475.084 C 100.43 475.724 100.626 476.364 100.756 476.913 C 100.821 477.188 100.951 477.462 101.016 477.736 C 103.294 484.597 106.939 490.359 111.495 494.292 C 112.602 495.207 113.708 496.121 114.88 496.853 C 115.075 496.945 115.205 497.036 115.4 497.128 C 115.726 497.311 116.051 497.493 116.312 497.676 C 116.767 497.951 117.223 498.134 117.679 498.408 L 118.264 498.683 C 118.655 498.866 119.045 498.957 119.436 499.14 C 119.631 499.231 119.826 499.231 119.957 499.323 C 120.542 499.506 121.128 499.689 121.714 499.78 L 130.826 499.78 C 131.022 499.78 131.152 499.689 131.347 499.597 C 134.862 498.683 138.181 496.853 141.11 494.201 C 142.933 492.646 144.56 490.725 146.057 488.621 C 147.228 486.975 148.335 485.054 149.311 483.133 C 150.938 479.749 152.24 476.09 153.086 472.065 L 148.986 472.065 C 145.666 485.511 136.749 494.932 126.27 494.932 L 126.27 494.932 Z  M 126.27 478.194 C 129.915 478.194 133.169 475.907 135.447 472.34 L 117.093 472.34 C 119.371 475.907 122.625 478.194 126.27 478.194 L 126.27 478.194 Z  M 126.27 489.353 C 134.471 489.353 141.566 482.401 144.69 472.431 L 140.329 472.431 C 137.53 479.291 132.323 483.865 126.27 483.865 C 120.282 483.865 115.01 479.2 112.211 472.431 L 107.85 472.431 C 110.975 482.31 118.004 489.353 126.27 489.353 L 126.27 489.353 Z  M 130.501 494.384 M 188.299 488.896 L 190.121 491.457 L 187.973 494.475 L 187.322 495.39 L 184.068 499.963 L 179.772 506 L 175.476 499.963 L 172.222 495.39 L 171.571 494.475 L 169.423 491.457 L 171.246 488.896 L 175.151 483.407 L 179.707 477.005 L 184.263 483.407 L 187.257 487.615 L 188.299 488.896 Z  M 184.589 491.457 L 179.772 484.688 L 174.956 491.457 L 179.772 498.225 L 184.589 491.457 Z  M 299.794 452.491 C 299.794 458.528 296.279 463.467 291.983 463.467 C 287.688 463.467 284.173 458.528 284.173 452.491 C 284.173 446.454 287.688 441.515 291.983 441.515 C 296.279 441.515 299.794 446.454 299.794 452.491 Z  M 295.889 452.491 C 295.889 449.473 294.131 447.003 291.983 447.003 C 289.835 447.003 288.078 449.473 288.078 452.491 C 288.078 455.51 289.835 457.979 291.983 457.979 C 294.131 457.979 295.889 455.51 295.889 452.491 Z  M 75.827 452.491 C 75.827 458.528 72.312 463.467 68.017 463.467 C 63.721 463.467 60.206 458.528 60.206 452.491 C 60.206 446.454 63.721 441.515 68.017 441.515 C 72.378 441.515 75.827 446.454 75.827 452.491 Z  M 71.922 452.491 C 71.922 449.473 70.165 447.003 68.017 447.003 C 65.869 447.003 64.111 449.473 64.111 452.491 C 64.111 455.51 65.869 457.979 68.017 457.979 C 70.23 457.979 71.922 455.51 71.922 452.491 Z " fill="rgb(230,115,159)"/></g><g clip-path="url(#_clipPath_z06ead15WcVq6H0IF3ntK7jllSx3PV3p)"><text transform="matrix(1,0,0,1,84,210.44)" style="font-family:'Paprika';font-weight:400;font-size:72px;font-style:normal;fill:#e6739f;stroke:none;">S</text></g><defs><clipPath id="_clipPath_z06ead15WcVq6H0IF3ntK7jllSx3PV3p"><rect x="0" y="0" width="56" height="103" transform="matrix(1,0,0,1,84,128)"/></clipPath></defs><g clip-path="url(#_clipPath_Eb4CPtIWQ7fXvi1oKZVqhXxTJKIcIiva)"><text transform="matrix(1,0,0,1,234,319.94)" style="font-family:'Paprika';font-weight:400;font-size:72px;font-style:normal;fill:#7ea04d;stroke:none;">T</text></g><defs><clipPath id="_clipPath_Eb4CPtIWQ7fXvi1oKZVqhXxTJKIcIiva"><rect x="0" y="0" width="56" height="103" transform="matrix(1,0,0,1,234,237.5)"/></clipPath></defs><g clip-path="url(#_clipPath_6O84PgDotdOHwNikuyj8FpcY5BlWMqNP)"><text transform="matrix(1,0,0,1,152,268.44)" style="font-family:'Paprika';font-weight:400;font-size:72px;font-style:normal;fill:#64c7cc;stroke:none;">E</text></g><defs><clipPath id="_clipPath_6O84PgDotdOHwNikuyj8FpcY5BlWMqNP"><rect x="0" y="0" width="56" height="103" transform="matrix(1,0,0,1,152,186)"/></clipPath></defs></g></svg>