<?xml version="1.0" encoding="UTF-8" standalone="no"?>
<!-- Generator: Gravit.io -->
<svg xmlns="http://www.w3.org/2000/svg" xmlns:xlink="http://www.w3.org/1999/xlink" style="isolation:isolate" viewBox="0 0 360 500" width="360pt" height="500pt"><defs><clipPath id="_clipPath_UHSNYbGXNL9ArKuHtm5xzUhAqJoYOUdn"><rect width="360" height="500"/></clipPath></defs><g clip-path="url(#_clipPath_UHSNYbGXNL9ArKuHtm5xzUhAqJoYOUdn)"><rect width="360" height="500" style="fill:rgb(242,242,242)"/><mask id="_mask_xJX6NGC2jEpCdeftV7UhHKUmfYG9teIa" x="-200%" y="-200%" width="400%" height="400%"><rect x="-200%" y="-200%" width="400%" height="400%" style="fill:white;"/><path d=" M 180.782 260.1 L 305.282 363.924 L 56.282 363.924 L 180.782 260.1 Z " fill-rule="evenodd" fill="black" stroke="none"/></mask><path d=" M 180.782 260.1 L 305.282 363.924 L 56.282 363.924 L 180.782 260.1 Z " fill-rule="evenodd" fill="rgb(194,234,236)"/><path d=" M 180.782 260.1 L 305.282 363.924 L 56.282 363.924 L 180.782 260.1 Z " fill-rule="evenodd" fill="rgb(194,234,236)" mask="url(#_mask_xJX6NGC2jEpCdeftV7UhHKUmfYG9teIa)" vector-effect="non-scaling-stroke" stroke-width="14" stroke="rgb(100,199,204)" stroke-linejoin="round" stroke-linecap="butt" stroke-miterlimit="1.414"/><mask id="_mask_lewwczlhwZo9NFw0ePQitTINXkwimpi9" x="-200%" y="-200%" width="400%" height="400%"><rect x="-200%" y="-200%" width="400%" height="400%" style="fill:white;"/><path d=" M 187.042 107.643 L 311.542 211.467 L 62.542 211.467 L 187.042 107.643 Z " fill-rule="evenodd" fill="black" stroke="none"/></mask><path d=" M 187.042 107.643 L 311.542 211.467 L 62.542 211.467 L 187.042 107.643 Z " fill-rule="evenodd" fill="rgb(194,234,236)"/><path d=" M 187.042 107.643 L 311.542 211.467 L 62.542 211.467 L 187.042 107.643 Z " fill-rule="evenodd" fill="rgb(194,234,236)" mask="url(#_mask_lewwczlhwZo9NFw0ePQitTINXkwimpi9)" vector-effect="non-scaling-stroke" stroke-width="14" stroke="rgb(100,199,204)" stroke-linejoin="round" stroke-linecap="butt" stroke-miterlimit="1.414"/></g></svg>