<?xml version="1.0" encoding="UTF-8" standalone="no"?>
<!-- Generator: Gravit.io -->
<svg xmlns="http://www.w3.org/2000/svg" xmlns:xlink="http://www.w3.org/1999/xlink" style="isolation:isolate" viewBox="0 0 360 500" width="360pt" height="500pt"><defs><clipPath id="_clipPath_50TPePadnYaH7FrG7LNgChJuWjg1eLTt"><rect width="360" height="500"/></clipPath></defs><g clip-path="url(#_clipPath_50TPePadnYaH7FrG7LNgChJuWjg1eLTt)"><rect width="360" height="500" style="fill:rgb(242,242,242)"/><mask id="_mask_Z669ST4jx1smvhP5SNVFzTgdgNgstA5q" x="-200%" y="-200%" width="400%" height="400%"><rect x="-200%" y="-200%" width="400%" height="400%" style="fill:white;"/><path d=" M 180 111.176 C 239.542 159.524 281.052 194.142 304.5 215 L 55.5 215 L 180 111.176 Z " fill-rule="evenodd" fill="black" stroke="none"/></mask><path d=" M 180 111.176 C 239.542 159.524 281.052 194.142 304.5 215 L 55.5 215 L 180 111.176 Z " fill-rule="evenodd" fill="rgb(242,242,242)"/><path d=" M 180 111.176 C 239.542 159.524 281.052 194.142 304.5 215 L 55.5 215 L 180 111.176 Z " fill-rule="evenodd" fill="rgb(242,242,242)" mask="url(#_mask_Z669ST4jx1smvhP5SNVFzTgdgNgstA5q)" vector-effect="non-scaling-stroke" stroke-width="14" stroke="rgb(230,115,159)" stroke-linejoin="round" stroke-linecap="butt" stroke-miterlimit="1.414"/><mask id="_mask_5h9bzBucSH2kAEnfmJzPx5TFpbYpfyrB" x="-200%" y="-200%" width="400%" height="400%"><rect x="-200%" y="-200%" width="400%" height="400%" style="fill:white;"/><path d=" M 180 267 L 304.5 370.824 L 55.5 370.824 L 180 267 Z " fill-rule="evenodd" fill="black" stroke="none"/></mask><path d=" M 180 267 L 304.5 370.824 L 55.5 370.824 L 180 267 Z " fill-rule="evenodd" fill="rgb(242,242,242)"/><path d=" M 180 267 L 304.5 370.824 L 55.5 370.824 L 180 267 Z " fill-rule="evenodd" fill="rgb(242,242,242)" mask="url(#_mask_5h9bzBucSH2kAEnfmJzPx5TFpbYpfyrB)" vector-effect="non-scaling-stroke" stroke-width="14" stroke="rgb(230,115,159)" stroke-linejoin="round" stroke-linecap="butt" stroke-miterlimit="1.414"/></g></svg>