<?xml version="1.0" encoding="UTF-8" standalone="no"?>
<!-- Generator: Gravit.io -->
<svg xmlns="http://www.w3.org/2000/svg" xmlns:xlink="http://www.w3.org/1999/xlink" style="isolation:isolate" viewBox="0 0 360 500" width="360pt" height="500pt"><defs><clipPath id="_clipPath_r1R0jr24gIdTb54FYwMwiKgPMmUVvzOL"><rect width="360" height="500"/></clipPath></defs><g clip-path="url(#_clipPath_r1R0jr24gIdTb54FYwMwiKgPMmUVvzOL)"><rect width="360" height="500" style="fill:rgb(242,242,242)"/><mask id="_mask_8teuv7Sbzw2duzxkUhdW0JEkBbaDmsPy" x="-200%" y="-200%" width="400%" height="400%"><rect x="-200%" y="-200%" width="400%" height="400%" style="fill:white;"/><path d=" M 180 188 C 239.542 236.348 281.052 270.966 304.5 291.824 L 55.5 291.824 L 180 188 Z " fill-rule="evenodd" fill="black" stroke="none"/></mask><path d=" M 180 188 C 239.542 236.348 281.052 270.966 304.5 291.824 L 55.5 291.824 L 180 188 Z " fill-rule="evenodd" fill="rgb(191,225,143)"/><path d=" M 180 188 C 239.542 236.348 281.052 270.966 304.5 291.824 L 55.5 291.824 L 180 188 Z " fill-rule="evenodd" fill="rgb(191,225,143)" mask="url(#_mask_8teuv7Sbzw2duzxkUhdW0JEkBbaDmsPy)" vector-effect="non-scaling-stroke" stroke-width="14" stroke="rgb(126,160,77)" stroke-linejoin="round" stroke-linecap="butt" stroke-miterlimit="1.414"/><mask id="_mask_ePwnyO8cf8Irw4o81uqpB7vACZwuXZB8" x="-200%" y="-200%" width="400%" height="400%"><rect x="-200%" y="-200%" width="400%" height="400%" style="fill:white;"/><path d=" M 180 334.176 L 304.5 438 L 55.5 438 L 180 334.176 Z " fill-rule="evenodd" fill="black" stroke="none"/></mask><path d=" M 180 334.176 L 304.5 438 L 55.5 438 L 180 334.176 Z " fill-rule="evenodd" fill="rgb(191,225,143)"/><path d=" M 180 334.176 L 304.5 438 L 55.5 438 L 180 334.176 Z " fill-rule="evenodd" fill="rgb(191,225,143)" mask="url(#_mask_ePwnyO8cf8Irw4o81uqpB7vACZwuXZB8)" vector-effect="non-scaling-stroke" stroke-width="14" stroke="rgb(126,160,77)" stroke-linejoin="round" stroke-linecap="butt" stroke-miterlimit="1.414"/><mask id="_mask_uP15cKkLR6Zp3GQTr39KP3M4i3td2e4a" x="-200%" y="-200%" width="400%" height="400%"><rect x="-200%" y="-200%" width="400%" height="400%" style="fill:white;"/><path d=" M 180 49.176 L 304.5 153 L 55.5 153 L 180 49.176 Z " fill-rule="evenodd" fill="black" stroke="none"/></mask><path d=" M 180 49.176 L 304.5 153 L 55.5 153 L 180 49.176 Z " fill-rule="evenodd" fill="rgb(191,225,143)"/><path d=" M 180 49.176 L 304.5 153 L 55.5 153 L 180 49.176 Z " fill-rule="evenodd" fill="rgb(191,225,143)" mask="url(#_mask_uP15cKkLR6Zp3GQTr39KP3M4i3td2e4a)" vector-effect="non-scaling-stroke" stroke-width="14" stroke="rgb(126,160,77)" stroke-linejoin="round" stroke-linecap="butt" stroke-miterlimit="1.414"/></g></svg>