<?xml version="1.0" encoding="UTF-8" standalone="no"?>
<!-- Generator: Gravit.io -->
<svg xmlns="http://www.w3.org/2000/svg" xmlns:xlink="http://www.w3.org/1999/xlink" style="isolation:isolate" viewBox="0 0 360 500" width="360pt" height="500pt"><defs><clipPath id="_clipPath_loYBv6PEyGf7gGL9ucAmtK4SsRu7vEaD"><rect width="360" height="500"/></clipPath></defs><g clip-path="url(#_clipPath_loYBv6PEyGf7gGL9ucAmtK4SsRu7vEaD)"><rect width="360" height="500" style="fill:rgb(242,242,242)"/><mask id="_mask_ODZVgBGbIafFxg9c8rl46rPcZoi4UPdg" x="-200%" y="-200%" width="400%" height="400%"><rect x="-200%" y="-200%" width="400%" height="400%" style="fill:white;"/><path d=" M 180 188 C 239.542 236.348 281.052 270.966 304.5 291.824 L 55.5 291.824 L 180 188 Z " fill-rule="evenodd" fill="black" stroke="none"/></mask><path d=" M 180 188 C 239.542 236.348 281.052 270.966 304.5 291.824 L 55.5 291.824 L 180 188 Z " fill-rule="evenodd" fill="rgb(225,187,202)"/><path d=" M 180 188 C 239.542 236.348 281.052 270.966 304.5 291.824 L 55.5 291.824 L 180 188 Z " fill-rule="evenodd" fill="rgb(225,187,202)" mask="url(#_mask_ODZVgBGbIafFxg9c8rl46rPcZoi4UPdg)" vector-effect="non-scaling-stroke" stroke-width="14" stroke="rgb(230,115,159)" stroke-linejoin="round" stroke-linecap="butt" stroke-miterlimit="1.414"/><mask id="_mask_Wzlm4C9plOWwpWa9URTHtpKBstGCPrRt" x="-200%" y="-200%" width="400%" height="400%"><rect x="-200%" y="-200%" width="400%" height="400%" style="fill:white;"/><path d=" M 180 334.176 L 304.5 438 L 55.5 438 L 180 334.176 Z " fill-rule="evenodd" fill="black" stroke="none"/></mask><path d=" M 180 334.176 L 304.5 438 L 55.5 438 L 180 334.176 Z " fill-rule="evenodd" fill="rgb(225,187,202)"/><path d=" M 180 334.176 L 304.5 438 L 55.5 438 L 180 334.176 Z " fill-rule="evenodd" fill="rgb(225,187,202)" mask="url(#_mask_Wzlm4C9plOWwpWa9URTHtpKBstGCPrRt)" vector-effect="non-scaling-stroke" stroke-width="14" stroke="rgb(230,115,159)" stroke-linejoin="round" stroke-linecap="butt" stroke-miterlimit="1.414"/><mask id="_mask_5fXOKCv3ENCNueYKB5WQz4R6vSLNcxLg" x="-200%" y="-200%" width="400%" height="400%"><rect x="-200%" y="-200%" width="400%" height="400%" style="fill:white;"/><path d=" M 180 49.176 L 304.5 153 L 55.5 153 L 180 49.176 Z " fill-rule="evenodd" fill="black" stroke="none"/></mask><path d=" M 180 49.176 L 304.5 153 L 55.5 153 L 180 49.176 Z " fill-rule="evenodd" fill="rgb(225,187,202)"/><path d=" M 180 49.176 L 304.5 153 L 55.5 153 L 180 49.176 Z " fill-rule="evenodd" fill="rgb(225,187,202)" mask="url(#_mask_5fXOKCv3ENCNueYKB5WQz4R6vSLNcxLg)" vector-effect="non-scaling-stroke" stroke-width="14" stroke="rgb(230,115,159)" stroke-linejoin="round" stroke-linecap="butt" stroke-miterlimit="1.414"/></g></svg>