<?xml version="1.0" encoding="UTF-8" standalone="no"?>
<!-- Generator: Gravit.io -->
<svg xmlns="http://www.w3.org/2000/svg" xmlns:xlink="http://www.w3.org/1999/xlink" style="isolation:isolate" viewBox="0 0 360 500" width="360pt" height="500pt"><defs><clipPath id="_clipPath_wePaR8fCRj3B1K32D12H3Tc1Hley7auD"><rect width="360" height="500"/></clipPath></defs><g clip-path="url(#_clipPath_wePaR8fCRj3B1K32D12H3Tc1Hley7auD)"><rect width="360" height="500" style="fill:rgb(242,242,242)"/><mask id="_mask_YQrZSVAavFlsZW4nF484NT9T4z6UFYny" x="-200%" y="-200%" width="400%" height="400%"><rect x="-200%" y="-200%" width="400%" height="400%" style="fill:white;"/><path d=" M 180 198.088 L 304.5 301.912 L 55.5 301.912 L 180 198.088 Z " fill-rule="evenodd" fill="black" stroke="none"/></mask><path d=" M 180 198.088 L 304.5 301.912 L 55.5 301.912 L 180 198.088 Z " fill-rule="evenodd" fill="rgb(194,234,236)"/><path d=" M 180 198.088 L 304.5 301.912 L 55.5 301.912 L 180 198.088 Z " fill-rule="evenodd" fill="rgb(194,234,236)" mask="url(#_mask_YQrZSVAavFlsZW4nF484NT9T4z6UFYny)" vector-effect="non-scaling-stroke" stroke-width="14" stroke="rgb(100,199,204)" stroke-linejoin="round" stroke-linecap="butt" stroke-miterlimit="1.414"/><mask id="_mask_f61TCo8BYG5DhGcrvNas9cfAwBZrqWDX" x="-200%" y="-200%" width="400%" height="400%"><rect x="-200%" y="-200%" width="400%" height="400%" style="fill:white;"/><path d=" M 180 336 L 304.5 439.824 L 55.5 439.824 L 180 336 Z " fill-rule="evenodd" fill="black" stroke="none"/></mask><path d=" M 180 336 L 304.5 439.824 L 55.5 439.824 L 180 336 Z " fill-rule="evenodd" fill="rgb(194,234,236)"/><path d=" M 180 336 L 304.5 439.824 L 55.5 439.824 L 180 336 Z " fill-rule="evenodd" fill="rgb(194,234,236)" mask="url(#_mask_f61TCo8BYG5DhGcrvNas9cfAwBZrqWDX)" vector-effect="non-scaling-stroke" stroke-width="14" stroke="rgb(100,199,204)" stroke-linejoin="round" stroke-linecap="butt" stroke-miterlimit="1.414"/><mask id="_mask_G5ZAkxC7DgtPg9tHuzj1bKs60Rk99UbM" x="-200%" y="-200%" width="400%" height="400%"><rect x="-200%" y="-200%" width="400%" height="400%" style="fill:white;"/><path d=" M 180 56 L 304.5 159.824 L 55.5 159.824 L 180 56 Z " fill-rule="evenodd" fill="black" stroke="none"/></mask><path d=" M 180 56 L 304.5 159.824 L 55.5 159.824 L 180 56 Z " fill-rule="evenodd" fill="rgb(194,234,236)"/><path d=" M 180 56 L 304.5 159.824 L 55.5 159.824 L 180 56 Z " fill-rule="evenodd" fill="rgb(194,234,236)" mask="url(#_mask_G5ZAkxC7DgtPg9tHuzj1bKs60Rk99UbM)" vector-effect="non-scaling-stroke" stroke-width="14" stroke="rgb(100,199,204)" stroke-linejoin="round" stroke-linecap="butt" stroke-miterlimit="1.414"/><g style="isolation:isolate"/></g></svg>